<svg width="341" height="24" viewBox="0 0 341 24" fill="none" xmlns="http://www.w3.org/2000/svg">
<path d="M9.568 23.384C7.904 23.384 6.464 23.0533 5.248 22.392C4.05333 21.7093 3.12533 20.7387 2.464 19.48C1.80267 18.2 1.472 16.6747 1.472 14.904C1.472 12.8773 1.74933 10.9787 2.304 9.208C2.88 7.43733 3.68 5.88 4.704 4.536C5.728 3.17067 6.95467 2.11467 8.384 1.368C9.83467 0.599999 11.424 0.216 13.152 0.216C14.816 0.216 16.2453 0.557333 17.44 1.24C18.656 1.90133 19.5947 2.86133 20.256 4.12C20.9173 5.37867 21.248 6.904 21.248 8.696C21.248 10.7227 20.96 12.6213 20.384 14.392C19.8293 16.1627 19.04 17.7307 18.016 19.096C16.992 20.44 15.7653 21.496 14.336 22.264C12.9067 23.0107 11.3173 23.384 9.568 23.384ZM10.048 19C11.0293 19 11.8933 18.68 12.64 18.04C13.3867 17.3787 14.0053 16.5253 14.496 15.48C15.008 14.4347 15.392 13.3253 15.648 12.152C15.904 10.9787 16.032 9.86933 16.032 8.824C16.032 7.352 15.7333 6.28533 15.136 5.624C14.5387 4.94133 13.7173 4.6 12.672 4.6C11.6907 4.6 10.8267 4.93067 10.08 5.592C9.33333 6.232 8.704 7.07467 8.192 8.12C7.70133 9.16533 7.328 10.2747 7.072 11.448C6.816 12.6213 6.688 13.7307 6.688 14.776C6.688 16.2267 6.98667 17.2933 7.584 17.976C8.20267 18.6587 9.024 19 10.048 19ZM28.479 23.384C26.8363 23.384 25.3003 23.16 23.871 22.712C22.4417 22.264 21.247 21.624 20.287 20.792L22.783 16.984C23.5083 17.624 24.3937 18.1253 25.439 18.488C26.5057 18.8507 27.6363 19.032 28.831 19.032C29.855 19.032 30.719 18.904 31.423 18.648C32.1483 18.392 32.6923 18.0187 33.055 17.528C33.439 17.0373 33.631 16.4613 33.631 15.8C33.631 14.9893 33.3217 14.392 32.703 14.008C32.1057 13.6027 31.1883 13.4 29.951 13.4H27.583L28.255 9.976L35.807 2.904L36.159 4.76H24.351L25.215 0.599998H40.895L40.255 3.96L32.703 11.032L30.271 9.56H31.423C32.9803 9.56 34.3137 9.80533 35.423 10.296C36.5323 10.7653 37.3857 11.448 37.983 12.344C38.5803 13.2187 38.879 14.264 38.879 15.48C38.879 16.9947 38.431 18.3493 37.535 19.544C36.6603 20.7387 35.4337 21.6773 33.855 22.36C32.2977 23.0427 30.5057 23.384 28.479 23.384Z" fill="white"/>
<rect x="74" y="1" width="267" height="22" fill="#F8DFC3"/>
</svg>
