<svg width="341" height="24" viewBox="0 0 341 24" fill="none" xmlns="http://www.w3.org/2000/svg">
<path d="M23.5385 23.0001L27.6025 2.6481L29.4265 4.7601H22.7065L23.5385 0.600098H33.2025L28.7225 23.0001H23.5385Z" fill="white"/>
<path d="M8.56817 23.3841C6.90417 23.3841 5.46417 23.0534 4.24817 22.3921C3.0535 21.7094 2.1255 20.7387 1.46417 19.4801C0.802835 18.2001 0.472168 16.6747 0.472168 14.9041C0.472168 12.8774 0.749501 10.9787 1.30417 9.20807C1.88017 7.4374 2.68017 5.88006 3.70417 4.53606C4.72817 3.17073 5.95483 2.11473 7.38417 1.36806C8.83484 0.600064 10.4242 0.216064 12.1522 0.216064C13.8162 0.216064 15.2455 0.557398 16.4402 1.24006C17.6562 1.9014 18.5948 2.8614 19.2562 4.12006C19.9175 5.37873 20.2482 6.90406 20.2482 8.69606C20.2482 10.7227 19.9602 12.6214 19.3842 14.3921C18.8295 16.1627 18.0402 17.7307 17.0162 19.0961C15.9922 20.4401 14.7655 21.4961 13.3362 22.2641C11.9068 23.0107 10.3175 23.3841 8.56817 23.3841ZM9.04817 19.0001C10.0295 19.0001 10.8935 18.6801 11.6402 18.0401C12.3868 17.3787 13.0055 16.5254 13.4962 15.4801C14.0082 14.4347 14.3922 13.3254 14.6482 12.1521C14.9042 10.9787 15.0322 9.8694 15.0322 8.82406C15.0322 7.35206 14.7335 6.2854 14.1362 5.62406C13.5388 4.9414 12.7175 4.60006 11.6722 4.60006C10.6908 4.60006 9.82684 4.93073 9.08017 5.59206C8.3335 6.23206 7.70417 7.07473 7.19217 8.12006C6.7015 9.1654 6.32817 10.2747 6.07217 11.4481C5.81617 12.6214 5.68817 13.7307 5.68817 14.7761C5.68817 16.2267 5.98683 17.2934 6.58417 17.9761C7.20283 18.6587 8.02417 19.0001 9.04817 19.0001Z" fill="white"/>
<path d="M74 1H341V23H74V1Z" fill="#ADC2E7"/>
</svg>
