<svg width="90" height="29" viewBox="0 0 90 29" fill="none" xmlns="http://www.w3.org/2000/svg">
<path d="M76.918 21.9441V17.9121L85.59 12.4401V12.3121L76.918 6.84011V2.80811L89.206 10.8401V13.9121L76.918 21.9441Z" fill="white"/>
<path d="M54.2427 28.12L70.3387 0.280029H74.2107L58.1147 28.12H54.2427Z" fill="white"/>
<path d="M45.519 23.384C43.919 23.384 42.5217 23.032 41.327 22.328C40.1323 21.624 39.2043 20.632 38.543 19.352C37.903 18.0506 37.583 16.4826 37.583 14.648C37.583 13.1973 37.7643 11.832 38.127 10.552C38.511 9.25062 39.0337 8.06662 39.695 6.99995C40.3563 5.93329 41.1457 5.01595 42.063 4.24795C43.0017 3.45862 44.0257 2.85062 45.135 2.42395C46.2443 1.97595 47.4283 1.75195 48.687 1.75195C49.903 1.75195 50.9803 2.05062 51.919 2.64795C52.879 3.22395 53.647 4.03462 54.223 5.07995L51.247 7.38395C50.863 6.76529 50.447 6.30662 49.999 6.00795C49.551 5.70929 49.039 5.55995 48.463 5.55995C47.759 5.55995 47.087 5.71995 46.447 6.03995C45.807 6.33862 45.2203 6.76529 44.687 7.31995C44.1537 7.85329 43.695 8.49329 43.311 9.23995C42.927 9.98662 42.6283 10.7973 42.415 11.672C42.2017 12.5253 42.095 13.4213 42.095 14.36C42.095 15.4266 42.2337 16.3546 42.511 17.144C42.8097 17.9333 43.279 18.5413 43.919 18.968C44.5803 19.3946 45.423 19.608 46.447 19.608C47.0657 19.608 47.6737 19.4586 48.271 19.16C48.8897 18.84 49.455 18.456 49.967 18.008L51.823 20.824C51.3963 21.208 50.8737 21.6026 50.255 22.008C49.6363 22.392 48.9217 22.7226 48.111 23C47.3217 23.256 46.4577 23.384 45.519 23.384Z" fill="white"/>
<path d="M17.0195 23L21.1795 2.13599H27.2275C28.6355 2.13599 29.8622 2.30665 30.9075 2.64799C31.9742 2.98932 32.7955 3.51199 33.3715 4.21599C33.9689 4.89865 34.2675 5.79465 34.2675 6.90399C34.2675 7.69332 34.0755 8.43999 33.6915 9.14399C33.3289 9.84799 32.8062 10.456 32.1235 10.968C31.4409 11.4587 30.6409 11.832 29.7235 12.088L29.6915 12.216C30.4595 12.408 31.1102 12.6853 31.6435 13.048C32.1769 13.3893 32.5822 13.816 32.8595 14.328C33.1369 14.84 33.2755 15.448 33.2755 16.152C33.2755 17.7733 32.8595 19.096 32.0275 20.12C31.2169 21.1227 30.1289 21.8587 28.7635 22.328C27.3982 22.776 25.8942 23 24.2515 23H17.0195ZM23.8675 10.616H25.6595C27.1102 10.616 28.1555 10.3493 28.7955 9.81598C29.4355 9.26132 29.7555 8.53599 29.7555 7.63999C29.7555 6.95732 29.4889 6.44532 28.9555 6.10399C28.4435 5.74132 27.6115 5.55999 26.4595 5.55999H24.9235L23.8675 10.616ZM22.0755 19.608H24.4755C25.4569 19.608 26.2889 19.48 26.9715 19.224C27.6542 18.968 28.1662 18.6053 28.5075 18.136C28.8702 17.6453 29.0515 17.0373 29.0515 16.312C29.0515 15.4587 28.7742 14.8187 28.2195 14.392C27.6649 13.944 26.8222 13.72 25.6915 13.72H23.2595L22.0755 19.608Z" fill="white"/>
<path d="M13.0321 21.9441L0.744141 13.9121V10.8401L13.0321 2.80811V6.84011L4.36014 12.3121V12.4401L13.0321 17.9121V21.9441Z" fill="white"/>
</svg>
