<svg width="220" height="150" viewBox="0 0 220 150" fill="none" xmlns="http://www.w3.org/2000/svg">
<path d="M219 117.375V124.094L194.688 135.281V129.25L214.906 120.5L194.688 111.781V105.906L219 117.375Z" fill="#DA97CA"/>
<path d="M183.844 90.1562H188.906L173.812 149.031H168.75L183.844 90.1562Z" fill="#DA97CA"/>
<path d="M164.281 125.375C164.281 128.729 164.021 131.51 163.5 133.719C163 135.906 162.24 137.646 161.219 138.938C160.198 140.25 158.927 141.167 157.406 141.688C155.885 142.188 154.125 142.438 152.125 142.438C150.167 142.438 148.438 142.188 146.938 141.688C145.438 141.167 144.167 140.25 143.125 138.938C142.104 137.646 141.323 135.906 140.781 133.719C140.24 131.51 139.969 128.729 139.969 125.375C139.969 119.896 140.948 115.896 142.906 113.375C144.865 110.833 147.938 109.562 152.125 109.562C156.312 109.562 159.385 110.833 161.344 113.375C163.302 115.896 164.281 119.896 164.281 125.375ZM158.719 126.312C158.719 124.062 158.615 122.146 158.406 120.562C158.198 118.979 157.844 117.708 157.344 116.75C156.385 114.938 154.646 114.031 152.125 114.031C149.583 114.031 147.854 114.938 146.938 116.75C146.438 117.708 146.073 118.979 145.844 120.562C145.635 122.146 145.531 124.062 145.531 126.312C145.531 130.5 146.021 133.49 147 135.281C147.979 137.073 149.688 137.969 152.125 137.969C154.562 137.969 156.271 137.073 157.25 135.281C158.229 133.49 158.719 130.5 158.719 126.312Z" fill="#DA97CA"/>
<path d="M113.969 119.594V142H108.531V97.1875H113.969V112.375C114.948 111.479 116.042 110.792 117.25 110.312C118.479 109.812 119.844 109.562 121.344 109.562C124.906 109.562 127.427 110.469 128.906 112.281C129.656 113.198 130.188 114.375 130.5 115.812C130.833 117.229 131 118.917 131 120.875V142H125.562V120.25C125.562 118.229 125.229 116.708 124.562 115.688C123.896 114.667 122.5 114.156 120.375 114.156C119.25 114.156 118.198 114.438 117.219 115C116.26 115.542 115.479 116.229 114.875 117.062C114.271 117.896 113.969 118.74 113.969 119.594Z" fill="#DA97CA"/>
<path d="M100.875 137.188V141.688C100.646 141.729 100.385 141.781 100.094 141.844C99.8229 141.885 99.5417 141.938 99.25 142C98.625 142.125 97.8854 142.188 97.0312 142.188C95.4896 142.188 94.1979 141.615 93.1562 140.469C92.1146 139.302 91.5938 137.427 91.5938 134.844V97.1875H97.0312V134.5C97.0312 135.625 97.1667 136.417 97.4375 136.875C97.7292 137.312 98.3021 137.531 99.1562 137.531C99.4479 137.531 99.7812 137.479 100.156 137.375C100.448 137.292 100.688 137.229 100.875 137.188Z" fill="#DA97CA"/>
<path d="M83.5938 137.531V142H81.6562C80.8021 142 79.9167 141.771 79 141.312C78.0833 140.854 77.3646 140.042 76.8438 138.875C76.0521 140.021 74.9896 140.906 73.6562 141.531C72.3438 142.135 70.5938 142.438 68.4062 142.438C67.2604 142.438 66.1042 142.323 64.9375 142.094C63.7917 141.865 62.7708 141.396 61.875 140.688C60.9792 139.979 60.25 139.01 59.6875 137.781C59.1458 136.531 58.875 134.927 58.875 132.969C58.875 129.51 59.875 126.865 61.875 125.031C63.8958 123.198 66.6979 122.281 70.2812 122.281H75.3125V118.844C75.3125 117.469 74.9167 116.344 74.125 115.469C73.3542 114.594 72.1562 114.156 70.5312 114.156C68.6979 114.156 67.0938 114.271 65.7188 114.5C64.3646 114.708 62.875 115.042 61.25 115.5V110.844C62.4375 110.49 63.7708 110.188 65.25 109.938C66.75 109.688 68.2917 109.562 69.875 109.562C73.9792 109.562 76.8333 110.406 78.4375 112.094C79.2708 112.969 79.8646 114.073 80.2188 115.406C80.5729 116.719 80.75 118.292 80.75 120.125V135.469C80.75 136.115 80.9583 136.625 81.375 137C81.8125 137.354 82.5521 137.531 83.5938 137.531ZM69.6875 137.844C71.6042 137.844 73.0208 137.344 73.9375 136.344C74.8542 135.323 75.3125 134.333 75.3125 133.375V126.625H69.9375C68.4583 126.625 67.1667 127.125 66.0625 128.125C64.9792 129.125 64.4375 130.615 64.4375 132.594C64.4375 134.594 64.8854 135.969 65.7812 136.719C66.6771 137.469 67.9792 137.844 69.6875 137.844Z" fill="#DA97CA"/>
<path d="M51.5312 125.375C51.5312 128.729 51.2708 131.51 50.75 133.719C50.25 135.906 49.4896 137.646 48.4688 138.938C47.4479 140.25 46.1771 141.167 44.6562 141.688C43.1354 142.188 41.375 142.438 39.375 142.438C37.4167 142.438 35.6875 142.188 34.1875 141.688C32.6875 141.167 31.4167 140.25 30.375 138.938C29.3542 137.646 28.5729 135.906 28.0312 133.719C27.4896 131.51 27.2188 128.729 27.2188 125.375C27.2188 119.896 28.1979 115.896 30.1562 113.375C32.1146 110.833 35.1875 109.562 39.375 109.562C43.5625 109.562 46.6354 110.833 48.5938 113.375C50.5521 115.896 51.5312 119.896 51.5312 125.375ZM45.9688 126.312C45.9688 124.062 45.8646 122.146 45.6562 120.562C45.4479 118.979 45.0938 117.708 44.5938 116.75C43.6354 114.938 41.8958 114.031 39.375 114.031C36.8333 114.031 35.1042 114.938 34.1875 116.75C33.6875 117.708 33.3229 118.979 33.0938 120.562C32.8854 122.146 32.7812 124.062 32.7812 126.312C32.7812 130.5 33.2708 133.49 34.25 135.281C35.2292 137.073 36.9375 137.969 39.375 137.969C41.8125 137.969 43.5208 137.073 44.5 135.281C45.4792 133.49 45.9688 130.5 45.9688 126.312Z" fill="#DA97CA"/>
<path d="M20.1875 136.688V141.375C19.75 141.5 19.0833 141.646 18.1875 141.812C17.2917 141.979 16.3646 142.125 15.4062 142.25C14.4688 142.375 13.6979 142.438 13.0938 142.438C10.7812 142.438 8.8125 142.115 7.1875 141.469C5.5625 140.802 4.22917 139.594 3.1875 137.844C2.14583 136.094 1.375 133.698 0.875 130.656C0.395833 127.594 0.15625 123.677 0.15625 118.906C0.15625 114.156 0.427083 110.344 0.96875 107.469C1.53125 104.594 2.38542 102.354 3.53125 100.75C4.65625 99.1458 6.07292 98.0833 7.78125 97.5625C9.48958 97.0208 11.5104 96.75 13.8438 96.75C14.8646 96.75 15.9583 96.8438 17.125 97.0312C18.3125 97.2188 19.3333 97.4271 20.1875 97.6562V102.375C17.8958 101.833 15.3958 101.562 12.6875 101.562C11.5417 101.562 10.5312 101.771 9.65625 102.188C8.78125 102.583 8.07292 103.406 7.53125 104.656C6.96875 105.906 6.54167 107.698 6.25 110.031C5.97917 112.365 5.84375 115.469 5.84375 119.344C5.84375 123.365 5.98958 126.573 6.28125 128.969C6.59375 131.365 7.04167 133.208 7.625 134.5C8.1875 135.771 8.89583 136.615 9.75 137.031C10.6042 137.448 11.6042 137.656 12.75 137.656C14.0833 137.656 15.4479 137.552 16.8438 137.344C18.2604 137.115 19.375 136.896 20.1875 136.688Z" fill="#DA97CA"/>
<path d="M219.094 14V19.6875L205.25 41.25H218.438V46H199.375V40.875L213.25 18.75H200.656V14H219.094Z" fill="#DA97CA"/>
<path d="M188.688 14H194.25L184.969 48.8125C184.531 50.5 184.021 51.9688 183.438 53.2188C182.854 54.4896 182.062 55.4688 181.062 56.1562C180.083 56.8438 178.74 57.1875 177.031 57.1875C176.344 57.1875 175.656 57.1458 174.969 57.0625C174.302 56.9792 173.771 56.8958 173.375 56.8125V52.1562C174.417 52.3229 175.531 52.4062 176.719 52.4062C177.885 52.4062 178.74 51.4479 179.281 49.5312L180.281 46H179L169.094 14H174.969L182.406 40.4375L188.688 14Z" fill="#DA97CA"/>
<path d="M155.781 26.2812V46H150.344V14H154.812L155.219 17.25C155.927 16.1458 156.812 15.2604 157.875 14.5938C158.958 13.9062 160.292 13.5625 161.875 13.5625C162.646 13.5625 163.302 13.5938 163.844 13.6562C164.406 13.7188 164.875 13.7917 165.25 13.875V19.5625C164.708 19.4375 164.083 19.3125 163.375 19.1875C162.667 19.0625 162.01 19 161.406 19C160.073 19 158.99 19.3542 158.156 20.0625C157.344 20.75 156.74 21.6562 156.344 22.7812C155.969 23.8854 155.781 25.0521 155.781 26.2812Z" fill="#DA97CA"/>
<path d="M143.312 14V18.8125H135.875V38.3125C135.875 39.0833 136.104 39.8646 136.562 40.6562C137.042 41.4479 137.885 41.8438 139.094 41.8438C140.073 41.8438 140.896 41.7708 141.562 41.625C142.25 41.4792 142.833 41.3333 143.312 41.1875V45.6875C142.875 45.8125 142.135 45.9688 141.094 46.1562C140.052 46.3438 138.958 46.4375 137.812 46.4375C135.292 46.4375 133.427 45.6458 132.219 44.0625C131.031 42.4792 130.438 40.4583 130.438 38V18.8125H126.281V14H130.438V6.3125H135.875V14H143.312Z" fill="#DA97CA"/>
<path d="M121.781 41.5312V46H119.844C118.99 46 118.104 45.7708 117.188 45.3125C116.271 44.8542 115.552 44.0417 115.031 42.875C114.24 44.0208 113.177 44.9062 111.844 45.5312C110.531 46.1354 108.781 46.4375 106.594 46.4375C105.448 46.4375 104.292 46.3229 103.125 46.0938C101.979 45.8646 100.958 45.3958 100.062 44.6875C99.1667 43.9792 98.4375 43.0104 97.875 41.7812C97.3333 40.5312 97.0625 38.9271 97.0625 36.9688C97.0625 33.5104 98.0625 30.8646 100.062 29.0312C102.083 27.1979 104.885 26.2812 108.469 26.2812H113.5V22.8438C113.5 21.4688 113.104 20.3438 112.312 19.4688C111.542 18.5938 110.344 18.1562 108.719 18.1562C106.885 18.1562 105.281 18.2708 103.906 18.5C102.552 18.7083 101.062 19.0417 99.4375 19.5V14.8438C100.625 14.4896 101.958 14.1875 103.438 13.9375C104.938 13.6875 106.479 13.5625 108.062 13.5625C112.167 13.5625 115.021 14.4062 116.625 16.0938C117.458 16.9688 118.052 18.0729 118.406 19.4062C118.76 20.7188 118.938 22.2917 118.938 24.125V39.4688C118.938 40.1146 119.146 40.625 119.562 41C120 41.3542 120.74 41.5312 121.781 41.5312ZM107.875 41.8438C109.792 41.8438 111.208 41.3438 112.125 40.3438C113.042 39.3229 113.5 38.3333 113.5 37.375V30.625H108.125C106.646 30.625 105.354 31.125 104.25 32.125C103.167 33.125 102.625 34.6146 102.625 36.5938C102.625 38.5938 103.073 39.9688 103.969 40.7188C104.865 41.4688 106.167 41.8438 107.875 41.8438Z" fill="#DA97CA"/>
<path d="M90.0312 27.125V31.9062H73.5312C73.5729 34.0104 73.7396 35.7083 74.0312 37C74.3229 38.2917 74.6979 39.3021 75.1562 40.0312C75.6354 40.7396 76.1875 41.2188 76.8125 41.4688C77.4375 41.7188 78.1562 41.8438 78.9688 41.8438C80.7604 41.8438 82.3854 41.7292 83.8438 41.5C85.3229 41.25 86.5625 41.0208 87.5625 40.8125V45.4375C86.5208 45.7292 85.2188 45.9688 83.6562 46.1562C82.1146 46.3438 80.7708 46.4375 79.625 46.4375C77.7917 46.4375 76.1562 46.25 74.7188 45.875C73.2812 45.4792 72.0729 44.7083 71.0938 43.5625C70.1146 42.4167 69.3646 40.7708 68.8438 38.625C68.3438 36.4583 68.0938 33.5833 68.0938 30C68.0938 24.1875 69.0729 19.9583 71.0312 17.3125C72.0104 16 73.2292 15.0521 74.6875 14.4688C76.1458 13.8646 77.8333 13.5625 79.75 13.5625C83.4167 13.5625 86.0417 14.7708 87.625 17.1875C89.2292 19.5833 90.0312 22.8958 90.0312 27.125ZM79.625 18.0938C78.5833 18.0938 77.7083 18.2396 77 18.5312C76.2917 18.8229 75.6979 19.3333 75.2188 20.0625C74.2812 21.4792 73.7396 23.9792 73.5938 27.5625H84.7188V25.8438C84.7188 23.4062 84.3438 21.5104 83.5938 20.1562C82.8646 18.7812 81.5417 18.0938 79.625 18.0938Z" fill="#DA97CA"/>
<path d="M60.125 32.5C60.125 35.1875 59.8229 37.4167 59.2188 39.1875C58.6146 40.9583 57.7708 42.3854 56.6875 43.4688C55.6042 44.5521 54.2812 45.3229 52.7188 45.7812C51.1562 46.2188 49.4167 46.4375 47.5 46.4375C46.1458 46.4375 44.8229 46.4271 43.5312 46.4062C42.2604 46.3854 41.1146 46.3333 40.0938 46.25C39.4896 46.2083 38.8958 46.1667 38.3125 46.125C37.7292 46.0833 37.1667 46.0417 36.625 46V1.1875C37.2292 1.14583 37.8229 1.10417 38.4062 1.0625C38.9896 1.02083 39.5729 0.979167 40.1562 0.9375C41.1354 0.854167 42.2188 0.802083 43.4062 0.78125C44.5938 0.760417 45.7083 0.75 46.75 0.75C48.6667 0.75 50.375 0.958333 51.875 1.375C53.3958 1.77083 54.6979 2.4375 55.7812 3.375C56.8438 4.3125 57.6458 5.53125 58.1875 7.03125C58.75 8.51042 59.0312 10.3229 59.0312 12.4688C59.0312 15.1562 58.4896 17.3021 57.4062 18.9062C56.3438 20.4896 55.1771 21.5625 53.9062 22.125C54.5521 22.3333 55.2292 22.6667 55.9375 23.125C56.6667 23.5625 57.3438 24.1771 57.9688 24.9688C58.5938 25.7604 59.1042 26.7708 59.5 28C59.9167 29.2083 60.125 30.7083 60.125 32.5ZM53.4688 12.9062C53.4688 10.2604 53.0729 8.34375 52.2812 7.15625C51.4896 5.96875 49.8958 5.375 47.5 5.375C45.9583 5.375 44.6979 5.4375 43.7188 5.5625C43.1979 5.64583 42.6875 5.70833 42.1875 5.75V20.1562H47.5C48.1458 20.1562 48.8125 20.0833 49.5 19.9375C50.2083 19.7917 50.8542 19.4896 51.4375 19.0312C52.0208 18.5521 52.5 17.8438 52.875 16.9062C53.2708 15.9479 53.4688 14.6146 53.4688 12.9062ZM54.4062 32.9375C54.4062 30.125 53.9479 28.0625 53.0312 26.75C52.1146 25.4167 50.4896 24.75 48.1562 24.75H42.1875V41.4688C42.4792 41.4896 42.7917 41.5104 43.125 41.5312C43.4583 41.5521 43.7917 41.5729 44.125 41.5938C44.7083 41.6354 45.3438 41.6771 46.0312 41.7188C46.7188 41.7604 47.4062 41.7812 48.0938 41.7812C48.9479 41.7812 49.75 41.6771 50.5 41.4688C51.2708 41.2396 51.9479 40.8021 52.5312 40.1562C53.1146 39.5312 53.5729 38.6458 53.9062 37.5C54.2396 36.3333 54.4062 34.8125 54.4062 32.9375Z" fill="#DA97CA"/>
<path d="M25.75 33.25V39.2812L1.4375 28.0938V21.375L25.75 9.90625V15.7812L5.90625 24.5L25.75 33.25Z" fill="#DA97CA"/>
</svg>
