<svg width="186" height="34" viewBox="0 0 186 34" fill="none" xmlns="http://www.w3.org/2000/svg">
<path d="M168.366 23.672L169.23 19.48L183.918 14.456L183.47 16.728L170.766 11.704L171.534 7.92798L185.582 13.72L184.75 17.88L168.366 23.672Z" fill="white"/>
<path d="M151.45 30.1999L167.866 0.0559082H172.538L156.09 30.1999H151.45Z" fill="white"/>
<path d="M144.786 27.2561C143.272 27.2561 141.842 27.0854 140.498 26.7441C139.176 26.4027 138.152 25.9761 137.426 25.4641L139.346 21.8481C140.093 22.3387 141 22.7334 142.066 23.0321C143.154 23.3307 144.242 23.4801 145.33 23.4801C146.504 23.4801 147.357 23.3307 147.89 23.0321C148.424 22.7334 148.69 22.3281 148.69 21.8161C148.69 21.4107 148.466 21.1121 148.018 20.9201C147.57 20.7067 147.005 20.5361 146.322 20.4081C145.64 20.2801 144.904 20.1307 144.114 19.9601C143.346 19.7894 142.61 19.5547 141.906 19.2561C141.224 18.9361 140.658 18.4881 140.21 17.9121C139.784 17.3147 139.57 16.5361 139.57 15.5761C139.57 14.2747 139.933 13.1761 140.658 12.2801C141.405 11.3841 142.429 10.7014 143.73 10.2321C145.053 9.76274 146.546 9.52808 148.21 9.52808C149.405 9.52808 150.568 9.65608 151.698 9.91208C152.829 10.1681 153.789 10.5201 154.578 10.9681L152.786 14.6161C151.976 14.1041 151.122 13.7627 150.226 13.5921C149.352 13.4001 148.509 13.3041 147.698 13.3041C146.525 13.3041 145.672 13.4747 145.138 13.8161C144.626 14.1361 144.37 14.5307 144.37 15.0001C144.37 15.4054 144.584 15.7254 145.01 15.9601C145.458 16.1734 146.024 16.3547 146.706 16.5041C147.389 16.6321 148.125 16.7814 148.914 16.9521C149.704 17.1014 150.44 17.3361 151.122 17.6561C151.805 17.9547 152.36 18.3921 152.786 18.9681C153.234 19.5227 153.458 20.2801 153.458 21.2401C153.458 22.5414 153.074 23.6507 152.306 24.5681C151.56 25.4641 150.536 26.1361 149.234 26.5841C147.933 27.0321 146.45 27.2561 144.786 27.2561Z" fill="white"/>
<path d="M126.569 27.2561C124.82 27.2561 123.294 26.9361 121.993 26.2961C120.692 25.6561 119.678 24.7601 118.953 23.6081C118.249 22.4561 117.897 21.1014 117.897 19.5441C117.897 17.6241 118.345 15.9174 119.241 14.4241C120.137 12.9094 121.364 11.7147 122.921 10.8401C124.5 9.96541 126.292 9.52808 128.297 9.52808C130.068 9.52808 131.593 9.84808 132.873 10.4881C134.174 11.1281 135.177 12.0241 135.881 13.1761C136.606 14.3067 136.969 15.6614 136.969 17.2401C136.969 19.1387 136.521 20.8454 135.625 22.3601C134.729 23.8747 133.502 25.0694 131.945 25.9441C130.388 26.8187 128.596 27.2561 126.569 27.2561ZM126.889 23.1601C127.87 23.1601 128.734 22.9254 129.481 22.4561C130.249 21.9654 130.846 21.2934 131.273 20.4401C131.7 19.5867 131.913 18.5947 131.913 17.4641C131.913 16.3121 131.572 15.3841 130.889 14.6801C130.206 13.9761 129.246 13.6241 128.009 13.6241C127.028 13.6241 126.153 13.8694 125.385 14.3601C124.638 14.8294 124.041 15.4907 123.593 16.3441C123.166 17.1974 122.953 18.1894 122.953 19.3201C122.953 20.4934 123.294 21.4321 123.977 22.1361C124.66 22.8187 125.63 23.1601 126.889 23.1601Z" fill="white"/>
<path d="M111.21 27.2561C109.973 27.2561 108.917 27.0107 108.042 26.5201C107.167 26.0081 106.538 25.2827 106.154 24.3441C105.791 23.3841 105.738 22.2534 105.994 20.9521L108.97 5.97607H113.962L110.986 20.9201C110.858 21.6454 110.933 22.2214 111.21 22.6481C111.487 23.0747 111.999 23.2881 112.746 23.2881C113.087 23.2881 113.429 23.2347 113.77 23.1281C114.133 23.0214 114.463 22.8721 114.762 22.6801L115.498 26.2321C114.879 26.6161 114.197 26.8827 113.45 27.0321C112.703 27.1814 111.957 27.2561 111.21 27.2561ZM104.714 14.0081L105.482 10.1681H117.418L116.65 14.0081H104.714Z" fill="white"/>
<path d="M93.26 27.2561C91.468 27.2561 89.9106 26.9361 88.588 26.2961C87.2866 25.6561 86.2733 24.7601 85.548 23.6081C84.8226 22.4561 84.46 21.1014 84.46 19.5441C84.46 17.6241 84.8866 15.9174 85.74 14.4241C86.6146 12.9094 87.8093 11.7147 89.324 10.8401C90.86 9.96541 92.62 9.52808 94.604 9.52808C96.2893 9.52808 97.74 9.84808 98.956 10.4881C100.172 11.1067 101.111 11.9814 101.772 13.1121C102.455 14.2214 102.796 15.5547 102.796 17.1121C102.796 17.5601 102.764 18.0081 102.7 18.4561C102.657 18.9041 102.593 19.3307 102.508 19.7361H88.268L88.78 16.8241H100.172L98.124 17.7201C98.2946 16.7601 98.2413 15.9601 97.964 15.3201C97.6866 14.6587 97.2386 14.1574 96.62 13.8161C96.0013 13.4534 95.2546 13.2721 94.38 13.2721C93.292 13.2721 92.364 13.5387 91.596 14.0721C90.8493 14.5841 90.284 15.2987 89.9 16.2161C89.516 17.1334 89.324 18.1681 89.324 19.3201C89.324 20.6427 89.6866 21.6347 90.412 22.2961C91.1586 22.9361 92.2786 23.2561 93.772 23.2561C94.6466 23.2561 95.4893 23.1174 96.3 22.8401C97.1106 22.5627 97.804 22.1681 98.38 21.6561L100.46 24.9521C99.4573 25.7414 98.3266 26.3281 97.068 26.7121C95.8306 27.0747 94.5613 27.2561 93.26 27.2561Z" fill="white"/>
<path d="M72.087 33.4639C71.2763 33.4639 70.5297 33.3786 69.847 33.2079C69.143 33.0586 68.5137 32.8239 67.959 32.5039L69.943 28.8879C70.519 29.2933 71.2123 29.4959 72.023 29.4959C72.7057 29.4959 73.2497 29.2933 73.655 28.8879C74.039 28.4826 74.3163 27.8426 74.487 26.9679L77.943 9.78392H82.935L79.511 26.8399C78.6363 31.2559 76.1616 33.4639 72.087 33.4639ZM81.271 7.38392C80.3963 7.38392 79.6923 7.13859 79.159 6.64792C78.6257 6.13592 78.359 5.51725 78.359 4.79192C78.359 3.93859 78.6577 3.23459 79.255 2.67992C79.8737 2.10392 80.6737 1.81592 81.655 1.81592C82.5297 1.81592 83.2337 2.06125 83.767 2.55192C84.3217 3.02125 84.599 3.60792 84.599 4.31192C84.599 5.22925 84.2897 5.97592 83.671 6.55192C83.0737 7.10659 82.2737 7.38392 81.271 7.38392Z" fill="white"/>
<path d="M62.3815 27.2561C60.6321 27.2561 59.1068 26.9361 57.8055 26.2961C56.5041 25.6561 55.4908 24.7601 54.7655 23.6081C54.0615 22.4561 53.7095 21.1014 53.7095 19.5441C53.7095 17.6241 54.1575 15.9174 55.0535 14.4241C55.9495 12.9094 57.1761 11.7147 58.7335 10.8401C60.3121 9.96541 62.1041 9.52808 64.1095 9.52808C65.8801 9.52808 67.4055 9.84808 68.6855 10.4881C69.9868 11.1281 70.9895 12.0241 71.6935 13.1761C72.4188 14.3067 72.7815 15.6614 72.7815 17.2401C72.7815 19.1387 72.3335 20.8454 71.4375 22.3601C70.5415 23.8747 69.3148 25.0694 67.7575 25.9441C66.2001 26.8187 64.4081 27.2561 62.3815 27.2561ZM62.7015 23.1601C63.6828 23.1601 64.5468 22.9254 65.2935 22.4561C66.0615 21.9654 66.6588 21.2934 67.0855 20.4401C67.5121 19.5867 67.7255 18.5947 67.7255 17.4641C67.7255 16.3121 67.3841 15.3841 66.7015 14.6801C66.0188 13.9761 65.0588 13.6241 63.8215 13.6241C62.8401 13.6241 61.9655 13.8694 61.1975 14.3601C60.4508 14.8294 59.8535 15.4907 59.4055 16.3441C58.9788 17.1974 58.7655 18.1894 58.7655 19.3201C58.7655 20.4934 59.1068 21.4321 59.7895 22.1361C60.4721 22.8187 61.4428 23.1601 62.7015 23.1601Z" fill="white"/>
<path d="M39.8579 27.0001L43.2819 9.78407H48.0179L47.0259 14.6801L46.5779 13.2721C47.3459 11.8854 48.3486 10.9147 49.5859 10.3601C50.8232 9.80541 52.3059 9.52808 54.0339 9.52808L53.1379 14.1361C52.9246 14.1147 52.7219 14.1041 52.5299 14.1041C52.3592 14.0827 52.1779 14.0721 51.9859 14.0721C50.5139 14.0721 49.3086 14.4347 48.3699 15.1601C47.4526 15.8854 46.8339 17.0587 46.5139 18.6801L44.8499 27.0001H39.8579Z" fill="white"/>
<path d="M28.7721 27.2561C27.3854 27.2561 26.1694 26.9894 25.1241 26.4561C24.1001 25.9227 23.3321 25.1014 22.8201 23.9921C22.3081 22.8614 22.1268 21.4107 22.2761 19.6401C22.4041 17.5921 22.8201 15.8107 23.5241 14.2961C24.2494 12.7814 25.2308 11.6081 26.4681 10.7761C27.7054 9.94408 29.1668 9.52808 30.8521 9.52808C32.1961 9.52808 33.4334 9.83741 34.5641 10.4561C35.6948 11.0534 36.6014 11.9281 37.2841 13.0801C37.9668 14.2107 38.3081 15.5974 38.3081 17.2401C38.3081 18.6694 38.0628 20.0027 37.5721 21.2401C37.0814 22.4561 36.3988 23.5121 35.5241 24.4081C34.6708 25.3041 33.6681 26.0081 32.5161 26.5201C31.3641 27.0107 30.1161 27.2561 28.7721 27.2561ZM16.5161 33.2081L21.1881 9.78407H25.9241L25.2201 13.2081L24.1321 18.3281L23.4601 23.4481L21.5081 33.2081H16.5161ZM28.1961 23.1281C29.1988 23.1281 30.0734 22.8934 30.8201 22.4241C31.5668 21.9334 32.1534 21.2721 32.5801 20.4401C33.0281 19.5867 33.2521 18.5947 33.2521 17.4641C33.2521 16.2907 32.9108 15.3627 32.2281 14.6801C31.5454 13.9974 30.5748 13.6561 29.3161 13.6561C28.3561 13.6561 27.4921 13.9014 26.7241 14.3921C25.9561 14.8614 25.3588 15.5227 24.9321 16.3761C24.5054 17.2081 24.2921 18.1894 24.2921 19.3201C24.2921 20.4934 24.6334 21.4214 25.3161 22.1041C25.9988 22.7867 26.9588 23.1281 28.1961 23.1281Z" fill="white"/>
<path d="M17.2961 7.92798L16.4641 12.12L1.68008 17.144L2.12808 14.872L14.9281 19.896L14.1601 23.672L0.0800781 17.88L0.912078 13.72L17.2961 7.92798Z" fill="white"/>
</svg>
