<svg width="342" height="24" viewBox="0 0 342 24" fill="none" xmlns="http://www.w3.org/2000/svg">
<path d="M9.568 23.384C7.904 23.384 6.464 23.0533 5.248 22.392C4.05333 21.7093 3.12533 20.7387 2.464 19.48C1.80267 18.2 1.472 16.6747 1.472 14.904C1.472 12.8773 1.74933 10.9787 2.304 9.208C2.88 7.43733 3.68 5.88 4.704 4.536C5.728 3.17067 6.95467 2.11467 8.384 1.368C9.83467 0.599999 11.424 0.216 13.152 0.216C14.816 0.216 16.2453 0.557333 17.44 1.24C18.656 1.90133 19.5947 2.86133 20.256 4.12C20.9173 5.37867 21.248 6.904 21.248 8.696C21.248 10.7227 20.96 12.6213 20.384 14.392C19.8293 16.1627 19.04 17.7307 18.016 19.096C16.992 20.44 15.7653 21.496 14.336 22.264C12.9067 23.0107 11.3173 23.384 9.568 23.384ZM10.048 19C11.0293 19 11.8933 18.68 12.64 18.04C13.3867 17.3787 14.0053 16.5253 14.496 15.48C15.008 14.4347 15.392 13.3253 15.648 12.152C15.904 10.9787 16.032 9.86933 16.032 8.824C16.032 7.352 15.7333 6.28533 15.136 5.624C14.5387 4.94133 13.7173 4.6 12.672 4.6C11.6907 4.6 10.8267 4.93067 10.08 5.592C9.33333 6.232 8.704 7.07467 8.192 8.12C7.70133 9.16533 7.328 10.2747 7.072 11.448C6.816 12.6213 6.688 13.7307 6.688 14.776C6.688 16.2267 6.98667 17.2933 7.584 17.976C8.20267 18.6587 9.024 19 10.048 19ZM20.8905 23L21.5625 19.64L31.7705 11.64C32.6238 10.9573 33.2852 10.36 33.7545 9.848C34.2452 9.336 34.5865 8.856 34.7785 8.408C34.9705 7.93867 35.0665 7.45867 35.0665 6.968C35.0665 6.22133 34.7892 5.624 34.2345 5.176C33.6798 4.728 32.8585 4.504 31.7705 4.504C30.8745 4.504 30.0105 4.70667 29.1785 5.112C28.3678 5.51733 27.6425 6.09333 27.0025 6.84L23.5145 4.312C24.4318 3.07467 25.6798 2.08267 27.2585 1.336C28.8372 0.589333 30.5972 0.216 32.5385 0.216C34.1172 0.216 35.4932 0.482666 36.6665 1.016C37.8398 1.528 38.7465 2.232 39.3865 3.128C40.0478 4.024 40.3785 5.05866 40.3785 6.232C40.3785 7.10667 40.2185 7.96 39.8985 8.792C39.5785 9.624 39.0452 10.4773 38.2985 11.352C37.5732 12.2053 36.5492 13.144 35.2265 14.168L26.8425 20.664L26.0105 18.776H38.6825L37.8505 23H20.8905Z" fill="white"/>
<rect x="74.6777" width="267" height="22" fill="#EBACC7"/>
</svg>
