<svg width="132" height="31" viewBox="0 0 132 31" fill="none" xmlns="http://www.w3.org/2000/svg">
<path d="M114.084 23.672L114.948 19.48L129.636 14.456L129.188 16.728L116.484 11.704L117.252 7.92798L131.3 13.72L130.468 17.88L114.084 23.672Z" fill="white"/>
<path d="M97.1689 30.1999L113.585 0.0559082H118.257L101.809 30.1999H97.1689Z" fill="white"/>
<path d="M90.505 27.2561C88.9904 27.2561 87.561 27.0854 86.217 26.7441C84.8944 26.4027 83.8704 25.9761 83.145 25.4641L85.065 21.8481C85.8117 22.3387 86.7184 22.7334 87.785 23.0321C88.873 23.3307 89.961 23.4801 91.049 23.4801C92.2224 23.4801 93.0757 23.3307 93.609 23.0321C94.1424 22.7334 94.409 22.3281 94.409 21.8161C94.409 21.4107 94.185 21.1121 93.737 20.9201C93.289 20.7067 92.7237 20.5361 92.041 20.4081C91.3584 20.2801 90.6224 20.1307 89.833 19.9601C89.065 19.7894 88.329 19.5547 87.625 19.2561C86.9424 18.9361 86.377 18.4881 85.929 17.9121C85.5024 17.3147 85.289 16.5361 85.289 15.5761C85.289 14.2747 85.6517 13.1761 86.377 12.2801C87.1237 11.3841 88.1477 10.7014 89.449 10.2321C90.7717 9.76274 92.265 9.52808 93.929 9.52808C95.1237 9.52808 96.2864 9.65608 97.417 9.91208C98.5477 10.1681 99.5077 10.5201 100.297 10.9681L98.505 14.6161C97.6944 14.1041 96.841 13.7627 95.945 13.5921C95.0704 13.4001 94.2277 13.3041 93.417 13.3041C92.2437 13.3041 91.3904 13.4747 90.857 13.8161C90.345 14.1361 90.089 14.5307 90.089 15.0001C90.089 15.4054 90.3024 15.7254 90.729 15.9601C91.177 16.1734 91.7424 16.3547 92.425 16.5041C93.1077 16.6321 93.8437 16.7814 94.633 16.9521C95.4224 17.1014 96.1584 17.3361 96.841 17.6561C97.5237 17.9547 98.0784 18.3921 98.505 18.9681C98.953 19.5227 99.177 20.2801 99.177 21.2401C99.177 22.5414 98.793 23.6507 98.025 24.5681C97.2784 25.4641 96.2544 26.1361 94.953 26.5841C93.6517 27.0321 92.169 27.2561 90.505 27.2561Z" fill="white"/>
<path d="M74.6079 27.0001L79.3439 3.2561H84.3359L79.5999 27.0001H74.6079Z" fill="white"/>
<path d="M64.9829 27.0001L69.7189 3.2561H74.7109L69.9749 27.0001H64.9829Z" fill="white"/>
<path d="M55.3892 26.9999L58.8132 9.78392H63.7732L60.3492 26.9999H55.3892ZM62.1412 7.38392C61.2665 7.38392 60.5625 7.13859 60.0292 6.64792C59.4958 6.13592 59.2292 5.51725 59.2292 4.79192C59.2292 3.93859 59.5278 3.23459 60.1252 2.67992C60.7438 2.10392 61.5438 1.81592 62.5252 1.81592C63.3998 1.81592 64.1038 2.06125 64.6372 2.55192C65.1918 3.02125 65.4692 3.60792 65.4692 4.31192C65.4692 5.22925 65.1598 5.97592 64.5412 6.55192C63.9438 7.10659 63.1438 7.38392 62.1412 7.38392Z" fill="white"/>
<path d="M39.7562 23.5441L40.8442 17.3681L50.0922 9.7841H56.5882L46.9562 17.8161L44.1722 19.8641L39.7562 23.5441ZM34.7642 27.0001L39.5002 3.2561H44.4922L39.7562 27.0001H34.7642ZM47.7242 27.0001L43.3082 19.7681L46.7962 15.9601L53.5162 27.0001H47.7242Z" fill="white"/>
<path d="M24.0363 27.2561C22.5216 27.2561 21.0923 27.0854 19.7483 26.7441C18.4256 26.4027 17.4016 25.9761 16.6763 25.4641L18.5963 21.8481C19.3429 22.3387 20.2496 22.7334 21.3163 23.0321C22.4043 23.3307 23.4923 23.4801 24.5803 23.4801C25.7536 23.4801 26.6069 23.3307 27.1403 23.0321C27.6736 22.7334 27.9403 22.3281 27.9403 21.8161C27.9403 21.4107 27.7163 21.1121 27.2683 20.9201C26.8203 20.7067 26.2549 20.5361 25.5723 20.4081C24.8896 20.2801 24.1536 20.1307 23.3643 19.9601C22.5963 19.7894 21.8603 19.5547 21.1563 19.2561C20.4736 18.9361 19.9083 18.4881 19.4603 17.9121C19.0336 17.3147 18.8203 16.5361 18.8203 15.5761C18.8203 14.2747 19.1829 13.1761 19.9083 12.2801C20.6549 11.3841 21.6789 10.7014 22.9803 10.2321C24.3029 9.76274 25.7963 9.52808 27.4603 9.52808C28.6549 9.52808 29.8176 9.65608 30.9483 9.91208C32.0789 10.1681 33.0389 10.5201 33.8283 10.9681L32.0363 14.6161C31.2256 14.1041 30.3723 13.7627 29.4763 13.5921C28.6016 13.4001 27.7589 13.3041 26.9483 13.3041C25.7749 13.3041 24.9216 13.4747 24.3883 13.8161C23.8763 14.1361 23.6203 14.5307 23.6203 15.0001C23.6203 15.4054 23.8336 15.7254 24.2603 15.9601C24.7083 16.1734 25.2736 16.3547 25.9563 16.5041C26.6389 16.6321 27.3749 16.7814 28.1643 16.9521C28.9536 17.1014 29.6896 17.3361 30.3723 17.6561C31.0549 17.9547 31.6096 18.3921 32.0363 18.9681C32.4843 19.5227 32.7083 20.2801 32.7083 21.2401C32.7083 22.5414 32.3243 23.6507 31.5563 24.5681C30.8096 25.4641 29.7856 26.1361 28.4843 26.5841C27.1829 27.0321 25.7003 27.2561 24.0363 27.2561Z" fill="white"/>
<path d="M17.2961 7.92798L16.4641 12.12L1.68008 17.144L2.12808 14.872L14.9281 19.896L14.1601 23.672L0.0800781 17.88L0.912078 13.72L17.2961 7.92798Z" fill="white"/>
</svg>
