<svg width="142" height="31" viewBox="0 0 142 31" fill="none" xmlns="http://www.w3.org/2000/svg">
<path d="M124.272 23.672L125.136 19.48L139.824 14.456L139.376 16.728L126.672 11.704L127.44 7.92798L141.488 13.72L140.656 17.88L124.272 23.672Z" fill="white"/>
<path d="M107.356 30.2L123.772 0.0560303H128.444L111.996 30.2H107.356Z" fill="white"/>
<path d="M100.479 27.256C98.6867 27.256 97.1294 26.936 95.8067 26.296C94.5054 25.656 93.492 24.76 92.7667 23.608C92.0414 22.456 91.6787 21.1013 91.6787 19.544C91.6787 17.624 92.1054 15.9173 92.9587 14.424C93.8334 12.9093 95.028 11.7146 96.5427 10.84C98.0787 9.96529 99.8387 9.52795 101.823 9.52795C103.508 9.52795 104.959 9.84795 106.175 10.488C107.391 11.1066 108.329 11.9813 108.991 13.112C109.673 14.2213 110.015 15.5546 110.015 17.112C110.015 17.56 109.983 18.008 109.919 18.456C109.876 18.904 109.812 19.3306 109.727 19.736H95.4867L95.9987 16.824H107.391L105.343 17.72C105.513 16.76 105.46 15.96 105.183 15.32C104.905 14.6586 104.457 14.1573 103.839 13.816C103.22 13.4533 102.473 13.272 101.599 13.272C100.511 13.272 99.5827 13.5386 98.8147 14.072C98.068 14.584 97.5027 15.2986 97.1187 16.216C96.7347 17.1333 96.5427 18.168 96.5427 19.32C96.5427 20.6426 96.9054 21.6346 97.6307 22.296C98.3774 22.936 99.4974 23.256 100.991 23.256C101.865 23.256 102.708 23.1173 103.519 22.84C104.329 22.5626 105.023 22.168 105.599 21.656L107.679 24.952C106.676 25.7413 105.545 26.328 104.287 26.712C103.049 27.0746 101.78 27.256 100.479 27.256Z" fill="white"/>
<path d="M77.7954 27L81.2194 9.78395H85.9554L84.9634 14.68L84.5154 13.272C85.2834 11.8853 86.2861 10.9146 87.5234 10.36C88.7607 9.80529 90.2434 9.52795 91.9714 9.52795L91.0754 14.136C90.8621 14.1146 90.6594 14.104 90.4674 14.104C90.2967 14.0826 90.1154 14.072 89.9234 14.072C88.4514 14.072 87.2461 14.4346 86.3074 15.16C85.3901 15.8853 84.7714 17.0586 84.4514 18.68L82.7874 27H77.7954Z" fill="white"/>
<path d="M55.7017 27L60.4377 3.25598H65.4297L63.4137 13.272L62.0697 18.296L61.3017 22.712L60.4377 27H55.7017ZM66.7097 27.256C65.387 27.256 64.2243 27.0213 63.2217 26.552C62.2403 26.0826 61.4723 25.368 60.9177 24.408C60.3843 23.4267 60.1177 22.2 60.1177 20.728C60.1177 19.1706 60.3097 17.7093 60.6937 16.344C61.0777 14.9787 61.643 13.7946 62.3897 12.792C63.1363 11.768 64.043 10.968 65.1097 10.392C66.1977 9.81598 67.4243 9.52798 68.7897 9.52798C70.1337 9.52798 71.371 9.83732 72.5017 10.456C73.6323 11.0533 74.539 11.928 75.2217 13.08C75.9043 14.2106 76.2457 15.5973 76.2457 17.24C76.2457 18.6693 76.0003 20.0026 75.5097 21.24C75.019 22.456 74.3363 23.512 73.4617 24.408C72.6083 25.304 71.6057 26.008 70.4537 26.52C69.3017 27.0106 68.0537 27.256 66.7097 27.256ZM66.1337 23.128C67.1363 23.128 68.011 22.8933 68.7577 22.424C69.5043 21.9333 70.091 21.272 70.5177 20.44C70.9657 19.5866 71.1897 18.5947 71.1897 17.464C71.1897 16.2907 70.8483 15.3626 70.1657 14.68C69.483 13.9973 68.5123 13.656 67.2537 13.656C66.2937 13.656 65.4297 13.9013 64.6617 14.392C63.8937 14.8613 63.2963 15.5226 62.8697 16.376C62.443 17.208 62.2297 18.1893 62.2297 19.32C62.2297 20.4933 62.571 21.4213 63.2537 22.104C63.9363 22.7866 64.8963 23.128 66.1337 23.128Z" fill="white"/>
<path d="M43.7565 27.256C42.0071 27.256 40.4818 26.936 39.1805 26.296C37.8791 25.656 36.8658 24.76 36.1405 23.608C35.4365 22.456 35.0845 21.1013 35.0845 19.544C35.0845 17.624 35.5325 15.9173 36.4285 14.424C37.3245 12.9093 38.5511 11.7146 40.1085 10.84C41.6871 9.96529 43.4791 9.52795 45.4845 9.52795C47.2551 9.52795 48.7805 9.84795 50.0605 10.488C51.3618 11.128 52.3645 12.024 53.0685 13.176C53.7938 14.3066 54.1565 15.6613 54.1565 17.24C54.1565 19.1386 53.7085 20.8453 52.8125 22.36C51.9165 23.8746 50.6898 25.0693 49.1325 25.944C47.5751 26.8186 45.7831 27.256 43.7565 27.256ZM44.0765 23.16C45.0578 23.16 45.9218 22.9253 46.6685 22.456C47.4365 21.9653 48.0338 21.2933 48.4605 20.44C48.8871 19.5866 49.1005 18.5946 49.1005 17.464C49.1005 16.312 48.7591 15.384 48.0765 14.68C47.3938 13.976 46.4338 13.624 45.1965 13.624C44.2151 13.624 43.3405 13.8693 42.5725 14.36C41.8258 14.8293 41.2285 15.4906 40.7805 16.344C40.3538 17.1973 40.1405 18.1893 40.1405 19.32C40.1405 20.4933 40.4818 21.432 41.1645 22.136C41.8471 22.8186 42.8178 23.16 44.0765 23.16Z" fill="white"/>
<path d="M24.0363 27.256C22.5216 27.256 21.0923 27.0853 19.7483 26.744C18.4256 26.4026 17.4016 25.976 16.6763 25.464L18.5963 21.848C19.3429 22.3386 20.2496 22.7333 21.3163 23.032C22.4043 23.3306 23.4923 23.48 24.5803 23.48C25.7536 23.48 26.6069 23.3306 27.1403 23.032C27.6736 22.7333 27.9403 22.328 27.9403 21.816C27.9403 21.4106 27.7163 21.112 27.2683 20.92C26.8203 20.7066 26.2549 20.536 25.5723 20.408C24.8896 20.28 24.1536 20.1306 23.3643 19.96C22.5963 19.7893 21.8603 19.5546 21.1563 19.256C20.4736 18.936 19.9083 18.488 19.4603 17.912C19.0336 17.3146 18.8203 16.536 18.8203 15.576C18.8203 14.2746 19.1829 13.176 19.9083 12.28C20.6549 11.384 21.6789 10.7013 22.9803 10.232C24.3029 9.76262 25.7963 9.52795 27.4603 9.52795C28.6549 9.52795 29.8176 9.65595 30.9483 9.91195C32.0789 10.168 33.0389 10.52 33.8283 10.968L32.0363 14.616C31.2256 14.104 30.3723 13.7626 29.4763 13.592C28.6016 13.4 27.7589 13.304 26.9483 13.304C25.7749 13.304 24.9216 13.4746 24.3883 13.816C23.8763 14.136 23.6203 14.5306 23.6203 15C23.6203 15.4053 23.8336 15.7253 24.2603 15.96C24.7083 16.1733 25.2736 16.3546 25.9563 16.504C26.6389 16.632 27.3749 16.7813 28.1643 16.952C28.9536 17.1013 29.6896 17.336 30.3723 17.656C31.0549 17.9546 31.6096 18.392 32.0363 18.968C32.4843 19.5226 32.7083 20.28 32.7083 21.24C32.7083 22.5413 32.3243 23.6506 31.5563 24.568C30.8096 25.464 29.7856 26.136 28.4843 26.584C27.1829 27.032 25.7003 27.256 24.0363 27.256Z" fill="white"/>
<path d="M17.2961 7.92798L16.4641 12.12L1.68008 17.144L2.12808 14.872L14.9281 19.896L14.1601 23.672L0.0800781 17.88L0.912078 13.72L17.2961 7.92798Z" fill="white"/>
</svg>
